<svg width="111" height="73" viewBox="0 0 111 73" fill="none" xmlns="http://www.w3.org/2000/svg">
<path d="M82.2282 5.16553C76.5234 5.24278 62.7745 5.41934 51.6627 5.55176C40.551 5.68418 31.4255 5.83868 31.3814 5.88282C31.3262 5.92696 29.362 8.68576 27.0007 12.0184L22.7083 18.0767L24.0545 18.1098C25.2572 18.1319 104.441 17.0725 106.239 17.0063L106.968 16.9732L102.101 10.9811L97.2351 5L94.9179 5.02207C93.6489 5.02207 87.9331 5.09932 82.2282 5.16553Z" fill="inherit"/>
<path d="M69.649 21.8397C60.1262 21.9721 41.5993 22.248 28.5014 22.4246C15.3924 22.6122 4.6559 22.7777 4.64486 22.7998C4.61176 22.8219 14.1456 34.5523 14.3552 34.7509C14.3552 34.7619 29.2076 34.5854 47.3373 34.3536C74.8242 34.0116 80.3414 33.9122 80.4628 33.7909C80.5952 33.6474 88.8711 21.9942 89.0587 21.6852C89.1138 21.5859 88.8931 21.5528 88.0545 21.5638C87.4587 21.5749 79.1828 21.6963 69.649 21.8397Z" fill="inherit"/>
<path d="M87.6904 38.1829C86.7524 38.1939 80.0986 38.2822 72.9042 38.3815C65.7097 38.4698 53.4945 38.6243 45.7593 38.7236C35.4642 38.856 31.6573 38.9333 31.5579 39.0216C31.4917 39.0988 29.5166 41.8576 27.1773 45.1682C23.5248 50.3327 22.9511 51.1824 23.1497 51.2155C23.5138 51.2817 103.194 50.1451 105.257 50.0457L107.089 49.9685L102.278 44.0426L97.4559 38.1057L93.4283 38.1277C91.2104 38.1498 88.6283 38.1719 87.6904 38.1829Z" fill="inherit"/>
<path d="M51.3869 55.3205C31.6903 55.6185 12.7662 55.8944 9.32343 55.9496C5.8917 55.9937 3.04481 56.0709 3.00067 56.1151C2.95653 56.1482 5.10825 58.8408 7.76756 62.0962L12.6007 68H14.2558C15.1717 68 30.002 67.8124 47.2269 67.5917C77.9469 67.1834 78.5317 67.1724 78.7414 66.9627C78.9179 66.7641 86.6972 55.8171 87.1827 55.0667C87.2931 54.9012 87.3372 54.7798 87.2931 54.7798C87.2379 54.7909 71.0834 55.0336 51.3869 55.3205Z" fill="inherit"/>
</svg>
