<svg  width="500pt" height="120pt" viewBox="0 0 1450 790" xmlns="http://www.w3.org/2000/svg" preserveAspectRatio="xMidYMid meet">
<g transform="translate(-1100,900) scale(0.1,-0.1)"
fill="#673ab7" stroke="none">
<path fill="#673ab7" d="M9665 7725 c-517 -7 -1763 -23 -2770 -35 -1007 -12 -1834 -26 -1838
-30 -5 -4 -183 -254 -397 -556 l-389 -549 122 -3 c109 -2 7285 94 7448 100
l66 3 -441 543 -441 542 -210 -2 c-115 0 -633 -7 -1150 -13z"/>
<path fill="#673ab7" d="M8525 6214 c-863 -12 -2542 -37 -3729 -53 -1188 -17 -2161 -32 -2162
-34 -3 -2 861 -1065 880 -1083 0 -1 1346 15 2989 36 2491 31 2991 40 3002 51
12 13 762 1069 779 1097 5 9 -15 12 -91 11 -54 -1 -804 -12 -1668 -25z"/>
<path fill="#673ab7" d="M10160 4733 c-85 -1 -688 -9 -1340 -18 -652 -8 -1759 -22 -2460 -31
-933 -12 -1278 -19 -1287 -27 -6 -7 -185 -257 -397 -557 -331 -468 -383 -545
-365 -548 33 -6 7254 97 7441 106 l166 7 -436 537 -437 538 -365 -2 c-201 -2
-435 -4 -520 -5z"/>
<path fill="#673ab7" d="M6870 3180 c-1785 -27 -3500 -52 -3812 -57 -311 -4 -569 -11 -573
-15 -4 -3 191 -247 432 -542 l438 -535 150 0 c83 0 1427 17 2988 37 2784 37
2837 38 2856 57 16 18 721 1010 765 1078 10 15 14 26 10 26 -5 -1 -1469 -23
-3254 -49z"/>
</g>
<g transform="translate(175,800) scale(0.4,-0.4)"
fill="#673ab7" stroke="none">
<path d="M1847 1783 c-4 -3 -7 -109 -7 -235 l0 -228 -80 0 -80 0 0 -75 0 -74
78 -3 77 -3 5 -300 5 -300 77 -3 78 -3 2 303 3 303 93 3 92 3 0 74 0 75 -95 0
-95 0 0 235 0 235 -73 0 c-41 0 -77 -3 -80 -7z"/>
<path d="M4120 1555 l0 -235 -80 0 -80 0 0 -75 0 -74 78 -3 77 -3 5 -300 5
-300 75 0 75 0 5 300 5 300 93 3 92 3 0 74 0 75 -95 0 -95 0 0 235 0 235 -80
0 -80 0 0 -235z"/>
<path d="M349 1306 c-65 -17 -128 -57 -183 -115 -54 -59 -79 -109 -97 -198
-11 -54 -11 -72 5 -136 29 -125 104 -214 226 -271 56 -26 77 -30 150 -30 93
-1 192 28 226 65 24 27 32 24 36 -13 l3 -33 68 -3 67 -3 0 366 0 365 -64 0
-63 0 -7 -39 -6 -40 -53 35 c-92 61 -202 79 -308 50z m214 -163 c46 -19 103
-84 117 -132 14 -51 12 -126 -4 -165 -17 -41 -71 -103 -106 -121 -15 -8 -50
-17 -78 -21 -104 -13 -199 33 -244 119 -31 59 -31 165 0 224 54 103 191 145
315 96z"/>
<path d="M1503 1302 c-63 -25 -129 -76 -165 -127 -18 -25 -35 -45 -40 -45 -4
0 -8 15 -8 33 0 17 -3 56 -6 85 l-7 52 -69 0 -68 0 2 -367 3 -368 78 -3 77 -3
0 203 c0 112 4 219 10 238 21 78 98 139 200 161 28 6 53 16 55 22 2 7 5 40 7
75 5 71 2 72 -69 44z"/>
<path d="M3489 1307 c-59 -22 -105 -64 -128 -117 -28 -65 -27 -124 4 -187 27
-53 74 -86 160 -113 129 -41 167 -98 105 -160 -27 -27 -112 -27 -163 0 -20 11
-43 20 -49 19 -7 0 -32 -24 -55 -53 -40 -51 -41 -55 -25 -69 10 -9 45 -28 77
-43 81 -37 208 -40 271 -7 88 47 130 127 122 234 -7 96 -61 152 -201 208 -73
30 -107 56 -107 84 1 63 82 87 160 47 l39 -20 42 55 c47 63 46 70 -27 105 -55
27 -174 36 -225 17z"/>
<path d="M2280 1290 c0 -6 82 -173 181 -372 l182 -362 -122 -243 c-66 -134
-121 -246 -121 -248 0 -3 34 -5 76 -3 l76 3 309 610 c169 336 304 614 300 618
-4 4 -39 7 -76 5 l-69 -3 -31 -60 c-17 -33 -66 -126 -109 -207 -43 -81 -93
-184 -111 -230 -19 -45 -38 -84 -43 -86 -5 -1 -14 16 -21 39 -19 62 -162 347
-251 499 l-26 45 -72 3 c-46 2 -72 -1 -72 -8z"/>
</g>
</svg>


