<svg width="18" height="18" viewBox="0 0 18 18" fill="none" xmlns="http://www.w3.org/2000/svg">
<path d="M15.6667 1.35L14.3333 0L13 1.35L11.6667 0L10.3333 1.35L9 0L7.66667 1.35L6.33333 0L5 1.35L3.66667 0V12.6H1V15.3C1 16.794 2.19111 18 3.66667 18H14.3333C15.8089 18 17 16.794 17 15.3V0L15.6667 1.35ZM11.6667 16.2H3.66667C3.17778 16.2 2.77778 15.795 2.77778 15.3V14.4H11.6667V16.2ZM15.2222 15.3C15.2222 15.795 14.8222 16.2 14.3333 16.2C13.8444 16.2 13.4444 15.795 13.4444 15.3V12.6H5.44444V2.7H15.2222V15.3Z" fill="currentColor"/>
<path d="M6 4H11.3333V6H6V4ZM12.2222 4H14V6H12.2222V4ZM6 7H11.3333V9H6V7ZM12.2222 7H14V9H12.2222V7Z" fill="currentColor"/>
</svg>
