<svg width="18" height="18" viewBox="0 0 18 18" fill="none" xmlns="http://www.w3.org/2000/svg">
<g clip-path="url(#clip0_22_780)">
<path d="M13.0914 9.9C13.7662 9.9 14.36 9.531 14.666 8.973L17.8871 3.132C17.9629 2.99558 18.0018 2.84172 17.9999 2.68565C17.9981 2.52957 17.9555 2.37669 17.8764 2.24214C17.7973 2.10758 17.6845 1.996 17.5491 1.91846C17.4137 1.84091 17.2603 1.80008 17.1043 1.8H3.78796L2.94219 0H0V1.8H1.7995L5.03861 8.631L3.82395 10.827C3.16713 12.033 4.03089 13.5 5.39851 13.5H16.1955V11.7H5.39851L6.38824 9.9H13.0914ZM4.64272 3.6H15.5747L13.0914 8.1H6.77513L4.64272 3.6ZM5.39851 14.4C4.40879 14.4 3.60801 15.21 3.60801 16.2C3.60801 17.19 4.40879 18 5.39851 18C6.38824 18 7.19802 17.19 7.19802 16.2C7.19802 15.21 6.38824 14.4 5.39851 14.4ZM14.396 14.4C13.4063 14.4 12.6055 15.21 12.6055 16.2C12.6055 17.19 13.4063 18 14.396 18C15.3858 18 16.1955 17.19 16.1955 16.2C16.1955 15.21 15.3858 14.4 14.396 14.4Z" fill="currentColor"/>
</g>
</svg>
