<svg width="18" height="18" viewBox="0 0 18 18" fill="none" xmlns="http://www.w3.org/2000/svg">
<path d="M10.9959 9L16.5824 3.41347C16.8475 3.14881 16.9967 2.78966 16.997 2.41503C16.9973 2.0404 16.8488 1.68099 16.5841 1.41585C16.3195 1.15072 15.9603 1.00158 15.5857 1.00125C15.2111 1.00092 14.8517 1.14942 14.5865 1.41409L9 7.00061L3.41347 1.41409C3.14834 1.14895 2.78874 1 2.41378 1C2.03882 1 1.67922 1.14895 1.41409 1.41409C1.14895 1.67922 1 2.03882 1 2.41378C1 2.78874 1.14895 3.14834 1.41409 3.41347L7.00061 9L1.41409 14.5865C1.14895 14.8517 1 15.2113 1 15.5862C1 15.9612 1.14895 16.3208 1.41409 16.5859C1.67922 16.851 2.03882 17 2.41378 17C2.78874 17 3.14834 16.851 3.41347 16.5859L9 10.9994L14.5865 16.5859C14.8517 16.851 15.2113 17 15.5862 17C15.9612 17 16.3208 16.851 16.5859 16.5859C16.851 16.3208 17 15.9612 17 15.5862C17 15.2113 16.851 14.8517 16.5859 14.5865L10.9959 9Z" fill="currentColor"/>
</svg>
