<svg width="18" height="18" viewBox="0 0 18 18" fill="none" xmlns="http://www.w3.org/2000/svg">
    <path d="M8.98902 -0.010996C9.04003 -0.0108999 9.04003 -0.0108999 9.09208 -0.0108018C9.59597 -0.00920475 10.0863 0.00868583 10.582 0.105459C10.6293 0.113948 10.6293 0.113948 10.6776 0.122608C12.3491 0.425063 13.861 1.2154 15.1098 2.35587C15.1717 2.41157 15.2343 2.46423 15.2996 2.51586C15.4024 2.60501 15.4875 2.69935 15.5755 2.80288C15.6511 2.89042 15.7302 2.97421 15.8093 3.05858C16.8698 4.2265 17.5534 5.71915 17.8704 7.25536C17.8755 7.28035 17.8807 7.30533 17.8861 7.33107C17.991 7.881 18.0132 8.43069 18.011 8.989C18.0109 9.04002 18.0109 9.04002 18.0108 9.09206C18.0092 9.59596 17.9913 10.0862 17.8945 10.582C17.8889 10.6136 17.8832 10.6451 17.8774 10.6776C17.5749 12.3491 16.7846 13.861 15.6441 15.1098C15.5884 15.1717 15.5358 15.2343 15.4841 15.2996C15.395 15.4024 15.3006 15.4875 15.1971 15.5754C15.1096 15.6511 15.0258 15.7301 14.9414 15.8093C13.7735 16.8697 12.2808 17.5534 10.7446 17.8704C10.7196 17.8755 10.6947 17.8807 10.6689 17.8861C10.119 17.991 9.56929 18.0132 9.01099 18.011C8.97695 18.0109 8.9429 18.0108 8.90782 18.0107C8.40442 18.009 7.91279 17.9951 7.41797 17.8945C7.3647 17.884 7.3647 17.884 7.31036 17.8734C6.41711 17.6936 5.45726 17.4319 4.68471 16.9316C4.48958 16.8351 4.30263 16.9116 4.10381 16.9763C4.04049 16.9968 4.04049 16.9968 3.97589 17.0177C3.93013 17.0327 3.88438 17.0477 3.83863 17.0627C3.79036 17.0784 3.74209 17.0941 3.69381 17.1097C3.56633 17.1511 3.43893 17.1927 3.31154 17.2343C3.18612 17.2753 3.06063 17.316 2.93514 17.3568C2.8854 17.373 2.83567 17.3892 2.78593 17.4053C2.68635 17.4377 2.58673 17.47 2.4871 17.5023C2.26166 17.5753 2.03648 17.6489 1.81225 17.7256C1.71429 17.759 1.61615 17.792 1.518 17.8248C1.45053 17.8477 1.38331 17.8712 1.3161 17.8948C1.00495 17.9986 0.68827 18.0665 0.369145 17.9582C0.19784 17.834 0.0688161 17.7106 4.75533e-06 17.5078C-0.0267903 17.1945 0.0178893 16.932 0.121129 16.6375C0.133859 16.5994 0.14659 16.5613 0.159706 16.522C0.186983 16.4406 0.214568 16.3593 0.242437 16.2781C0.286194 16.1505 0.329109 16.0227 0.371798 15.8947C0.430023 15.7204 0.488514 15.5461 0.547244 15.3719C0.663166 15.0275 0.776767 14.6824 0.88817 14.3365C0.920106 14.2378 0.952616 14.1393 0.985152 14.0408C1.00447 13.981 1.02377 13.9211 1.04302 13.8613C1.05196 13.8347 1.0609 13.8081 1.07011 13.7807C1.1463 13.5397 1.11394 13.3903 0.99928 13.1695C0.987112 13.1466 0.974944 13.1237 0.962407 13.1001C0.936583 13.0497 0.910859 12.9992 0.885228 12.9488C0.872301 12.9233 0.859374 12.8978 0.846055 12.8716C0.483757 12.1487 0.250082 11.376 0.105474 10.582C0.099718 10.5526 0.0939626 10.5233 0.0880327 10.493C-0.098039 9.51843 -0.0843494 8.39045 0.105474 7.41796C0.113962 7.37065 0.113962 7.37065 0.122622 7.32239C0.425078 5.6509 1.21542 4.13902 2.35589 2.89022C2.41158 2.82828 2.46424 2.7657 2.51587 2.70043C2.60502 2.59757 2.69937 2.51247 2.80289 2.42454C2.89044 2.34887 2.97422 2.26984 3.0586 2.19066C4.22652 1.13023 5.71917 0.446627 7.25538 0.129629C7.28036 0.124446 7.30535 0.119262 7.33109 0.113922C7.88102 0.00896788 8.43071 -0.0131866 8.98902 -0.010996ZM4.53516 2.8828C4.49434 2.91332 4.45346 2.94376 4.41253 2.97413C4.22647 3.11317 4.04829 3.25392 3.8882 3.42306C3.82718 3.48542 3.76255 3.54075 3.69581 3.59691C2.38629 4.7365 1.58491 6.58985 1.44141 8.29687C1.42921 8.52011 1.42944 8.74352 1.43042 8.96703C1.43049 8.99716 1.43055 9.0273 1.43062 9.05834C1.43556 10.44 1.81761 11.704 2.488 12.9087C2.50735 12.9443 2.5267 12.9799 2.54664 13.0166C2.57267 13.0625 2.57267 13.0625 2.59923 13.1094C2.68866 13.3702 2.63509 13.6275 2.54911 13.8816C2.5399 13.9102 2.5307 13.9388 2.52122 13.9682C2.49135 14.0606 2.46077 14.1527 2.43018 14.2449C2.40936 14.3088 2.3886 14.3728 2.36788 14.4369C2.31566 14.5979 2.26289 14.7587 2.20998 14.9195C2.13871 15.1365 2.06855 15.3539 1.99834 15.5713C1.97569 15.6413 1.95285 15.7111 1.92998 15.781C1.91644 15.8226 1.90291 15.8641 1.88897 15.907C1.87715 15.9431 1.86533 15.9792 1.85315 16.0164C1.82483 16.098 1.82483 16.098 1.82813 16.1719C2.12265 16.095 2.41198 16.0053 2.70141 15.9112C2.74702 15.8965 2.79263 15.8817 2.83825 15.867C2.9571 15.8286 3.07592 15.7901 3.19473 15.7516C3.38569 15.6896 3.57669 15.6278 3.7677 15.5661C3.83408 15.5446 3.90045 15.5231 3.96681 15.5015C4.00708 15.4885 4.04734 15.4755 4.08883 15.4621C4.14189 15.4449 4.14189 15.4449 4.19601 15.4273C4.50936 15.3301 4.73531 15.3246 5.03394 15.4797C5.10882 15.5193 5.18348 15.5593 5.25808 15.5994C5.70424 15.8345 6.16154 16.0592 6.64454 16.207C6.67179 16.2155 6.69904 16.2239 6.72712 16.2327C7.14062 16.3599 7.55142 16.4646 7.98047 16.5234C8.00436 16.5267 8.02825 16.53 8.05286 16.5334C9.94103 16.7587 11.9524 16.2914 13.4648 15.1172C13.5057 15.0867 13.5466 15.0562 13.5875 15.0259C13.7735 14.8868 13.9517 14.7461 14.1118 14.5769C14.1728 14.5146 14.2375 14.4592 14.3042 14.4031C15.6148 13.2625 16.413 11.4108 16.5586 9.70312C16.5716 9.47696 16.5723 9.25063 16.5718 9.02416C16.5718 8.99336 16.5717 8.96257 16.5717 8.93084C16.5665 7.36207 16.0868 5.78402 15.1172 4.53515C15.0867 4.49432 15.0562 4.45344 15.0259 4.41251C14.8868 4.22646 14.7461 4.04828 14.5769 3.88819C14.5146 3.82717 14.4592 3.76254 14.4031 3.69579C13.2625 2.38518 11.4108 1.58698 9.70313 1.4414C9.47697 1.42838 9.25064 1.42766 9.02417 1.42821C8.99338 1.42824 8.96258 1.42827 8.93085 1.42831C7.36209 1.43346 5.78404 1.91318 4.53516 2.8828Z" fill="currentColor"/>
</svg>
