<svg width="18" height="18" viewBox="0 0 18 18" fill="none" xmlns="http://www.w3.org/2000/svg">
<path d="M11 15V13.3333C11 12.4493 10.699 11.6014 10.1632 10.9763C9.62734 10.3512 8.90062 10 8.14286 10H3.85714C3.09938 10 2.37266 10.3512 1.83684 10.9763C1.30102 11.6014 1 12.4493 1 13.3333V15" stroke="currentColor" stroke-width="1.5" stroke-linecap="round" stroke-linejoin="round"/>
<path d="M6 8C7.65685 8 9 6.65685 9 5C9 3.34315 7.65685 2 6 2C4.34315 2 3 3.34315 3 5C3 6.65685 4.34315 8 6 8Z" stroke="currentColor" stroke-width="1.5" stroke-linecap="round" stroke-linejoin="round"/>
<path d="M16 15V13.2964C15.9996 12.5415 15.8029 11.8082 15.4409 11.2115C15.0789 10.6149 14.5721 10.1887 14 10" stroke="currentColor" stroke-width="1.5" stroke-linecap="round" stroke-linejoin="round"/>
<path d="M11 2C11.8582 2.17056 12.6188 2.55796 13.162 3.10114C13.7052 3.64432 14 4.31238 14 5C14 5.68762 13.7052 6.35567 13.162 6.89886C12.6188 7.44204 11.8582 7.82944 11 8" stroke="currentColor" stroke-width="1.5" stroke-linecap="round" stroke-linejoin="round"/>
</svg>
