<svg width="18" height="18" viewBox="0 0 18 18" fill="none" xmlns="http://www.w3.org/2000/svg">
<path d="M9 1C7.41775 1 5.87103 1.46919 4.55544 2.34824C3.23985 3.22729 2.21447 4.47672 1.60897 5.93853C1.00347 7.40034 0.84504 9.00887 1.15372 10.5607C1.4624 12.1126 2.22433 13.538 3.34315 14.6569C4.46197 15.7757 5.88743 16.5376 7.43928 16.8463C8.99113 17.155 10.5997 16.9965 12.0615 16.391C13.5233 15.7855 14.7727 14.7602 15.6518 13.4446C16.5308 12.129 17 10.5822 17 9C17 7.94942 16.7931 6.90914 16.391 5.93853C15.989 4.96793 15.3997 4.08601 14.6569 3.34315C13.914 2.60028 13.0321 2.011 12.0615 1.60896C11.0909 1.20693 10.0506 1 9 1ZM9 15.4C7.7342 15.4 6.49683 15.0246 5.44435 14.3214C4.39188 13.6182 3.57158 12.6186 3.08717 11.4492C2.60277 10.2797 2.47603 8.9929 2.72298 7.75142C2.96992 6.50994 3.57946 5.36957 4.47452 4.47452C5.36958 3.57946 6.50995 2.96992 7.75142 2.72297C8.9929 2.47603 10.2797 2.60277 11.4492 3.08717C12.6186 3.57157 13.6182 4.39187 14.3214 5.44435C15.0246 6.49682 15.4 7.7342 15.4 9C15.4 10.6974 14.7257 12.3252 13.5255 13.5255C12.3253 14.7257 10.6974 15.4 9 15.4Z" fill="currentColor"/>
<path d="M9 8.16667C7.5 8.16667 7.5 7.64167 7.5 7.33333C7.5 7.025 8.025 6.5 9 6.5C9.37011 6.5 9.60945 6.57685 9.76438 6.68861C10.0955 6.92747 10.3757 7.33333 10.7839 7.33333V7.33333C11.2048 7.33333 11.554 6.98154 11.431 6.57906C11.3427 6.29037 11.2071 6.02 11.0289 5.78246C10.7899 5.46377 10.4848 5.21806 10.1424 5.06456C9.92125 4.96539 9.75 4.76126 9.75 4.51887V4.51887C9.75 4.23231 9.51769 4 9.23113 4H8.74545C8.47182 4 8.25 4.22182 8.25 4.49545V4.49545C8.25 4.73463 8.07762 4.93557 7.84899 5.00578C6.61633 5.38432 6 6.35883 6 7.33333C6 8.26667 6.39 9.83333 9 9.83333C10.5 9.83333 10.5 10.4 10.5 10.6667C10.5 10.9333 10.035 11.5 9 11.5C8.47465 11.5 8.1319 11.3961 7.90886 11.2611C7.55456 11.0465 7.16421 10.6667 6.75 10.6667V10.6667C6.33579 10.6667 5.995 11.0101 6.12915 11.402C6.34242 12.025 6.84801 12.7054 7.84973 13.0058C8.07725 13.0741 8.25 13.2732 8.25 13.5108V13.5108C8.25 13.781 8.46904 14 8.73923 14H9.25787C9.52967 14 9.75 13.7797 9.75 13.5079V13.5079C9.75 13.2713 9.91987 13.0722 10.1458 13.0021C11.3819 12.6184 12 11.6425 12 10.6667C12 9.73333 11.61 8.16667 9 8.16667Z" fill="currentColor"/>
</svg>
