<svg width="18" height="18" viewBox="0 0 18 18" fill="none" xmlns="http://www.w3.org/2000/svg">
    <path d="M11.8281 8.38281C11.8281 8.25228 11.88 8.12709 11.9723 8.03478C12.0646 7.94248 12.1898 7.89062 12.3203 7.89062H13.3047C13.4352 7.89062 13.5604 7.94248 13.6527 8.03478C13.745 8.12709 13.7969 8.25228 13.7969 8.38281V9.36719C13.7969 9.49772 13.745 9.62291 13.6527 9.71522C13.5604 9.80752 13.4352 9.85938 13.3047 9.85938H12.3203C12.1898 9.85938 12.0646 9.80752 11.9723 9.71522C11.88 9.62291 11.8281 9.49772 11.8281 9.36719V8.38281Z" fill="currentColor"/>
    <path d="M4.44531 1C4.57585 1 4.70104 1.05186 4.79334 1.14416C4.88564 1.23646 4.9375 1.36165 4.9375 1.49219V1.98438H12.8125V1.49219C12.8125 1.36165 12.8644 1.23646 12.9567 1.14416C13.049 1.05186 13.1742 1 13.3047 1C13.4352 1 13.5604 1.05186 13.6527 1.14416C13.745 1.23646 13.7969 1.36165 13.7969 1.49219V1.98438H14.7812C15.3034 1.98438 15.8042 2.1918 16.1734 2.56101C16.5426 2.93022 16.75 3.43098 16.75 3.95312V14.7812C16.75 15.3034 16.5426 15.8042 16.1734 16.1734C15.8042 16.5426 15.3034 16.75 14.7812 16.75H2.96875C2.44661 16.75 1.94585 16.5426 1.57663 16.1734C1.20742 15.8042 1 15.3034 1 14.7812V3.95312C1 3.43098 1.20742 2.93022 1.57663 2.56101C1.94585 2.1918 2.44661 1.98438 2.96875 1.98438H3.95312V1.49219C3.95312 1.36165 4.00498 1.23646 4.09728 1.14416C4.18959 1.05186 4.31478 1 4.44531 1ZM2.96875 2.96875C2.70768 2.96875 2.4573 3.07246 2.27269 3.25707C2.08809 3.44167 1.98438 3.69205 1.98438 3.95312V14.7812C1.98438 15.0423 2.08809 15.2927 2.27269 15.4773C2.4573 15.6619 2.70768 15.7656 2.96875 15.7656H14.7812C15.0423 15.7656 15.2927 15.6619 15.4773 15.4773C15.6619 15.2927 15.7656 15.0423 15.7656 14.7812V3.95312C15.7656 3.69205 15.6619 3.44167 15.4773 3.25707C15.2927 3.07246 15.0423 2.96875 14.7812 2.96875H2.96875Z" fill="currentColor"/>
    <path d="M3.46094 4.9375C3.46094 4.80696 3.51279 4.68177 3.6051 4.58947C3.6974 4.49717 3.82259 4.44531 3.95312 4.44531H13.7969C13.9274 4.44531 14.0526 4.49717 14.1449 4.58947C14.2372 4.68177 14.2891 4.80696 14.2891 4.9375V5.92188C14.2891 6.05241 14.2372 6.1776 14.1449 6.2699C14.0526 6.36221 13.9274 6.41406 13.7969 6.41406H3.95312C3.82259 6.41406 3.6974 6.36221 3.6051 6.2699C3.51279 6.1776 3.46094 6.05241 3.46094 5.92188V4.9375Z" fill="currentColor"/>
</svg>
