<svg width="18" height="18" viewBox="0 0 18 18" fill="none" xmlns="http://www.w3.org/2000/svg">
<path d="M9 4.5C8.21778 4.50099 7.46789 4.81217 6.91478 5.36528C6.36167 5.91839 6.05049 6.66828 6.0495 7.4505H7.5495C7.5495 6.65025 8.2005 6 9 6C9.7995 6 10.4505 6.65025 10.4505 7.4505C10.4505 7.899 10.0897 8.2245 9.5385 8.67C9.35842 8.81107 9.18545 8.96101 9.02025 9.11925C8.27175 9.867 8.25 10.6613 8.25 10.7498V11.25H9.75L9.74925 10.7752C9.75 10.7632 9.774 10.4858 10.08 10.1805C10.1925 10.068 10.3342 9.9555 10.4812 9.837C11.0655 9.36375 11.9497 8.649 11.9497 7.4505C11.9492 6.66829 11.6382 5.91828 11.0852 5.3651C10.5321 4.81193 9.78221 4.50079 9 4.5ZM8.25 12H9.75V13.5H8.25V12Z" fill="currentColor"/>
<path d="M9 1.5C4.8645 1.5 1.5 4.8645 1.5 9C1.5 13.1355 4.8645 16.5 9 16.5C13.1355 16.5 16.5 13.1355 16.5 9C16.5 4.8645 13.1355 1.5 9 1.5ZM9 15C5.69175 15 3 12.3082 3 9C3 5.69175 5.69175 3 9 3C12.3082 3 15 5.69175 15 9C15 12.3082 12.3082 15 9 15Z" fill="currentColor"/>
</svg>
