<svg width="18" height="18" viewBox="0 0 18 18" fill="none" xmlns="http://www.w3.org/2000/svg">
<g clip-path="url(#clip0_43_86)">
<path d="M9 6V10L11 12" stroke="currentColor" stroke-width="1.5" stroke-linecap="round" stroke-linejoin="round"/>
<path d="M1 8.18929C1.19971 6.23379 2.11421 4.42006 3.56904 3.09415C5.02387 1.76825 6.91717 1.02297 8.88774 1.00052C10.8583 0.978073 12.7682 1.68002 14.253 2.97244C15.7378 4.26485 16.6936 6.05727 16.938 8.00772C17.1825 9.95816 16.6984 11.9301 15.5783 13.5473C14.4581 15.1645 12.7802 16.3138 10.8647 16.7758C8.94927 17.2379 6.93029 16.9804 5.19301 16.0525C3.45572 15.1245 2.12175 13.5911 1.44559 11.7448M1 16.1893V11.7448H5.45591" stroke="currentColor" stroke-width="1.5" stroke-linecap="round" stroke-linejoin="round"/>
</g>
</svg>
