<svg width="18" height="18" viewBox="0 0 18 18" fill="none" xmlns="http://www.w3.org/2000/svg">
<path fill-rule="evenodd" clip-rule="evenodd" d="M9 17C11.1217 17 13.1566 16.1571 14.6569 14.6569C16.1571 13.1566 17 11.1217 17 9C17 6.87827 16.1571 4.84344 14.6569 3.34315C13.1566 1.84285 11.1217 1 9 1C6.87827 1 4.84344 1.84285 3.34315 3.34315C1.84285 4.84344 1 6.87827 1 9C1 11.1217 1.84285 13.1566 3.34315 14.6569C4.84344 16.1571 6.87827 17 9 17ZM9.707 6.707C9.88916 6.5184 9.98995 6.2658 9.98767 6.0036C9.9854 5.7414 9.88023 5.49059 9.69482 5.30518C9.50941 5.11977 9.2586 5.0146 8.9964 5.01233C8.7342 5.01005 8.4816 5.11084 8.293 5.293L5.293 8.293C5.10553 8.48053 5.00021 8.73484 5.00021 9C5.00021 9.26516 5.10553 9.51947 5.293 9.707L8.293 12.707C8.4816 12.8892 8.7342 12.99 8.9964 12.9877C9.2586 12.9854 9.50941 12.8802 9.69482 12.6948C9.88023 12.5094 9.9854 12.2586 9.98767 11.9964C9.98995 11.7342 9.88916 11.4816 9.707 11.293L8.414 10H12C12.2652 10 12.5196 9.89464 12.7071 9.70711C12.8946 9.51957 13 9.26522 13 9C13 8.73478 12.8946 8.48043 12.7071 8.29289C12.5196 8.10536 12.2652 8 12 8H8.414L9.707 6.707Z" fill="currentColor"/>
</svg>
