<svg width="18" height="18" viewBox="0 0 18 18" fill="currentColor" xmlns="http://www.w3.org/2000/svg">
    <g clip-path="url(#clip0_15_707)">
        <path d="M8.04779 8.42524C8.78603 8.35607 9.46896 8.69941 9.57274 9.19159C9.67631 9.6836 9.16216 10.1382 8.42428 10.2075C7.68602 10.2767 7.00309 9.93407 6.89932 9.44188C6.79557 8.94975 7.30964 8.49449 8.04779 8.42524Z" fill="currentColor"/>
        <path fill-rule="evenodd" clip-rule="evenodd" d="M8.92312 4.82166C9.40836 4.80192 9.84519 4.833 10.2652 4.98581L10.5098 5.08596C11.0691 5.34112 11.5486 5.74643 11.8943 6.25876L11.9831 6.4002C12.1779 6.73453 12.2926 7.10518 12.3785 7.5214C12.475 7.98895 12.5459 8.57346 12.6346 9.29611L13 12.2694L13.1167 13.2534C13.1482 13.5493 13.171 13.8149 13.1807 14.0534C13.1979 14.4781 13.1764 14.8661 13.0682 15.2376L13.0165 15.3955C12.8051 15.9763 12.4372 16.486 11.9563 16.8688L11.7436 17.0247C11.3731 17.2745 10.9565 17.4106 10.481 17.5089C10.2472 17.5572 9.98379 17.599 9.68915 17.64L8.70629 17.7649L5.73294 18.1304C5.01036 18.2192 4.42593 18.2917 3.94895 18.311C3.52425 18.3283 3.13631 18.3067 2.76479 18.1986L2.60682 18.147C2.026 17.9354 1.51648 17.5675 1.13359 17.0866L0.977694 16.874C0.727786 16.5035 0.591759 16.0869 0.493494 15.6113C0.445212 15.3776 0.403327 15.1142 0.362382 14.8195L0.237455 13.8366L-0.128013 10.8633C-0.216742 10.1407 -0.289223 9.55629 -0.308686 9.0793C-0.328423 8.59413 -0.297236 8.15705 -0.144537 7.73717L-0.04439 7.49249C0.210676 6.93353 0.61636 6.45368 1.12843 6.10803L1.26986 6.01925C1.60406 5.82459 1.975 5.70981 2.39105 5.62384C2.85855 5.52729 3.44317 5.45652 4.16575 5.3678L7.13908 5.00233L8.12297 4.88566C8.41885 4.85408 8.68462 4.83139 8.92312 4.82166ZM5.08357 12.7216C4.69738 12.6355 4.29354 12.67 3.92727 12.8197C3.75899 12.8885 3.57381 13.0124 3.29957 13.275C3.01921 13.5435 2.68882 13.9138 2.21245 14.4488L1.79742 14.9135C1.82109 15.0653 1.84491 15.2025 1.87072 15.3275C1.95131 15.7172 2.0385 15.932 2.14328 16.0873L2.23412 16.2112C2.45606 16.4897 2.75139 16.7029 3.08792 16.8255L3.23143 16.8678C3.38877 16.9032 3.59279 16.9181 3.89114 16.9059C4.29749 16.8894 4.81581 16.8261 5.56157 16.7346L8.53492 16.3702L9.49611 16.2473C9.58777 16.2346 9.67488 16.2208 9.75723 16.2081L7.04824 14.04C6.48866 13.5924 6.09988 13.2831 5.77837 13.0654C5.5428 12.906 5.36958 12.8141 5.22294 12.7619L5.08357 12.7216ZM8.98084 6.22676C8.77775 6.23504 8.54602 6.25532 8.27266 6.28458L7.31046 6.39814L4.33713 6.76259C3.5914 6.85415 3.07324 6.9188 2.67497 7.00107C2.38248 7.06154 2.18826 7.12578 2.04417 7.19825L1.91512 7.27362C1.6181 7.47411 1.38263 7.75255 1.23476 8.07683L1.17694 8.21827C1.11299 8.39433 1.08027 8.62394 1.09642 9.02148C1.11298 9.42786 1.17623 9.94618 1.2678 10.6919L1.55893 13.0706L1.79329 12.8104C1.98558 12.6011 2.16186 12.4172 2.32704 12.2591C2.66362 11.9369 2.99696 11.6807 3.39559 11.5179L3.6351 11.43C4.20056 11.248 4.80632 11.2197 5.38916 11.3496L5.54505 11.3888C5.90265 11.4927 6.22868 11.6725 6.5661 11.9009C6.94488 12.1573 7.38375 12.5089 7.92577 12.9426L11.2574 15.6072C11.4498 15.4109 11.5999 15.1755 11.695 14.9144L11.7374 14.771C11.7729 14.6136 11.7877 14.4096 11.7756 14.1113C11.7674 13.9081 11.7471 13.6763 11.7178 13.4031L11.6042 12.4408L11.2398 9.46749C11.1482 8.72169 11.0836 8.20363 11.0013 7.80531C10.9409 7.51264 10.8766 7.31869 10.8042 7.17451L10.7288 7.04546C10.5282 6.74818 10.25 6.51307 9.92554 6.36511L9.78408 6.30729C9.60796 6.24325 9.37866 6.21061 8.98084 6.22676Z" fill="currentColor"/>
        <path d="M7.79953 0.321925C8.31017 0.34233 8.93533 0.418402 9.70894 0.51155L12.8913 0.895128L13.9433 1.02623C14.259 1.06924 14.5405 1.11316 14.7908 1.16385C15.2999 1.26699 15.7455 1.4097 16.1422 1.67204L16.3698 1.83566C16.8846 2.23757 17.2783 2.77221 17.5047 3.3819L17.5599 3.54768C17.6757 3.93773 17.6988 4.34465 17.6803 4.79053C17.6699 5.04095 17.6445 5.31954 17.6107 5.6303L17.4869 6.66293L17.0958 9.78354C17.0008 10.5422 16.9251 11.1555 16.8217 11.6463C16.7297 12.0831 16.6069 12.4721 16.3985 12.823L16.3035 12.9714C16.1358 13.2152 15.938 13.4358 15.7168 13.6292L15.5941 13.717C15.2915 13.8894 14.8969 13.8357 14.6549 13.5696C14.3784 13.2654 14.4055 12.7982 14.7156 12.5272L14.8979 12.3473C14.9546 12.2837 15.0074 12.2163 15.056 12.1457L15.1367 12.0103C15.2142 11.859 15.283 11.6555 15.3477 11.3483C15.4357 10.9302 15.505 10.3866 15.603 9.60372L15.993 6.48306L16.1145 5.47318C16.1459 5.18613 16.1676 4.94316 16.1764 4.72985C16.1894 4.41653 16.1735 4.20266 16.1356 4.03746L16.0903 3.88684C15.959 3.53357 15.731 3.2237 15.4328 2.99074L15.3002 2.89538C15.1338 2.7854 14.9044 2.6939 14.487 2.60932C14.2738 2.56615 14.0281 2.52759 13.7367 2.48797L12.7079 2.35901L9.52552 1.97652C8.72702 1.88038 8.17269 1.81401 7.73765 1.79665C7.41808 1.78391 7.20006 1.79956 7.03157 1.83674L6.87797 1.88117C6.51748 2.00983 6.20068 2.2332 5.96304 2.52589L5.86691 2.65591C5.79057 2.7669 5.72261 2.90701 5.66027 3.11318L5.60282 3.25187C5.43822 3.55452 5.07389 3.71257 4.72546 3.61162C4.32702 3.49583 4.09909 3.08455 4.21716 2.69384L4.29451 2.46412C4.37817 2.23916 4.48305 2.02843 4.61938 1.83024L4.78623 1.60703C5.19611 1.10222 5.74128 0.716121 6.36305 0.494208L6.53211 0.440028C6.92986 0.32653 7.34483 0.303784 7.79953 0.321925Z" fill="currentColor"/>
    </g>
</svg>
