<svg width="18" height="18" viewBox="0 0 18 18" fill="none" xmlns="http://www.w3.org/2000/svg">
<path d="M1 12.2733V5.72667C1 4.88076 0.999249 4.19705 1.0418 3.64435C1.08508 3.08238 1.17691 2.5842 1.39881 2.12188L1.54003 1.85335C1.89183 1.24483 2.39691 0.749077 2.99969 0.423181L3.16463 0.341658C3.55369 0.164606 3.97098 0.0845562 4.43449 0.0443656C4.95536 -0.000796739 5.5997 9.28588e-07 6.39689 9.28588e-07H7.55377L7.70855 0.0167941C8.05924 0.0928175 8.32314 0.421806 8.32314 0.816384C8.32314 1.21096 8.05924 1.53996 7.70855 1.61599L7.55377 1.63277H6.39689C5.5743 1.63277 5.00358 1.63386 4.55989 1.67233C4.23382 1.7006 4.01444 1.74585 3.84814 1.809L3.69788 1.87853C3.3482 2.0676 3.05566 2.355 2.85169 2.70809L2.77034 2.86273C2.6772 3.0567 2.61155 3.31622 2.57602 3.77742C2.53977 4.24822 2.53874 4.85383 2.53874 5.72667V12.2733C2.53874 13.1459 2.5398 13.7517 2.57602 14.2225C2.61152 14.6836 2.67727 14.9433 2.77034 15.1372L2.85169 15.2931C3.05566 15.6459 3.34837 15.9338 3.69788 16.1227L3.84814 16.1909C4.01447 16.2541 4.23371 16.3006 4.55989 16.3289C5.00358 16.3673 5.5743 16.3672 6.39689 16.3672H7.55377L7.70855 16.384C8.05916 16.46 8.32296 16.7891 8.32314 17.1835C8.32314 17.5781 8.05919 17.9072 7.70855 17.9832L7.55377 18H6.39689C5.5997 18 4.95536 18.0007 4.43449 17.9556C3.97095 17.9154 3.55371 17.8354 3.16463 17.6584L2.99969 17.5769C2.39682 17.2508 1.89184 16.7552 1.54003 16.1466L1.39881 15.8792C1.17673 15.4168 1.08509 14.9178 1.0418 14.3556C0.99926 13.8029 1 13.1191 1 12.2733ZM12.9179 13.6699C12.6175 13.9883 12.1302 13.9884 11.8299 13.6699C11.5294 13.3511 11.5294 12.833 11.8299 12.5142L12.9179 13.6699ZM11.8299 4.33126C12.0928 4.05233 12.4985 4.0178 12.797 4.22697L12.9179 4.33126L16.775 8.42277C17.0751 8.74146 17.075 9.25847 16.775 9.57727L12.9179 13.6699L12.3744 13.092L11.8299 12.5142L14.3719 9.81701H7.55377C7.12901 9.81701 6.78461 9.4512 6.7844 9.00056C6.7844 8.54975 7.12888 8.18421 7.55377 8.18421H14.3731L11.8299 5.48571L11.7317 5.35744C11.5345 5.04065 11.5672 4.61023 11.8299 4.33126Z" fill="currentColor"/>
</svg>
