<svg width="18" height="18" viewBox="0 0 18 18" fill="none" xmlns="http://www.w3.org/2000/svg">
    <path d="M15.1875 3.9375V3.375C15.1862 2.92785 15.008 2.49938 14.6918 2.18319C14.3756 1.86701 13.9472 1.6888 13.5 1.6875H2.25C1.80285 1.6888 1.37438 1.86701 1.05819 2.18319C0.742005 2.49938 0.563799 2.92785 0.5625 3.375V12.375C0.563799 12.8222 0.742005 13.2506 1.05819 13.5668C1.37438 13.883 1.80285 14.0612 2.25 14.0625H2.8125" stroke="currentColor" stroke-width="1.5" stroke-linejoin="round"/>
    <path d="M15.8207 4.5H4.99184C4.09888 4.5 3.375 5.22388 3.375 6.11684V14.6957C3.375 15.5886 4.09888 16.3125 4.99184 16.3125H15.8207C16.7136 16.3125 17.4375 15.5886 17.4375 14.6957V6.11684C17.4375 5.22388 16.7136 4.5 15.8207 4.5Z" stroke="currentColor" stroke-width="1.5" stroke-linejoin="round"/>
    <path d="M13.1105 8.79575C13.7079 8.79575 14.1922 8.3149 14.1922 7.72173C14.1922 7.12856 13.7079 6.64771 13.1105 6.64771C12.513 6.64771 12.0287 7.12856 12.0287 7.72173C12.0287 8.3149 12.513 8.79575 13.1105 8.79575Z" stroke="currentColor" stroke-width="1.5" stroke-miterlimit="10"/>
    <path d="M12.0287 13.0841L8.96484 10.047C8.76898 9.85344 8.507 9.74144 8.23178 9.73354C7.95656 9.72565 7.68859 9.82245 7.48195 10.0044L3.375 13.628M9.32449 16.3125L13.4937 12.1736C13.6855 11.9844 13.9407 11.8729 14.2098 11.8608C14.479 11.8486 14.7431 11.9367 14.9512 12.1078L17.4375 14.1648" stroke="currentColor" stroke-width="1.5" stroke-linecap="round" stroke-linejoin="round"/>
</svg>
