<svg width="18" height="18" viewBox="0 0 18 18" fill="none" xmlns="http://www.w3.org/2000/svg">
    <path d="M11.1428 12.8115C12.5402 12.646 13.9132 12.3163 15.2333 11.829C14.1153 10.5906 13.4975 8.98087 13.5 7.3125V6.75C13.5 5.55653 13.0259 4.41193 12.182 3.56802C11.3381 2.72411 10.1935 2.25 9.00001 2.25C7.80653 2.25 6.66194 2.72411 5.81803 3.56802C4.97411 4.41193 4.50001 5.55653 4.50001 6.75V7.3125C4.50227 8.98097 3.88425 10.5907 2.76601 11.829C4.06576 12.309 5.43601 12.6427 6.85726 12.8115M11.1428 12.8115C9.71925 12.9804 8.28077 12.9804 6.85726 12.8115M11.1428 12.8115C11.2508 13.1489 11.2777 13.507 11.2212 13.8568C11.1647 14.2065 11.0264 14.538 10.8175 14.8242C10.6087 15.1104 10.3352 15.3432 10.0194 15.5037C9.70356 15.6642 9.35429 15.7479 9.00001 15.7479C8.64572 15.7479 8.29645 15.6642 7.98061 15.5037C7.66478 15.3432 7.39131 15.1104 7.18247 14.8242C6.97363 14.538 6.83533 14.2065 6.77882 13.8568C6.7223 13.507 6.74918 13.1489 6.85726 12.8115" stroke="currentColor" stroke-width="1.5" stroke-linecap="round" stroke-linejoin="round"/>
</svg>
