<svg width="18" height="18" viewBox="0 0 18 18" fill="inherit" xmlns="http://www.w3.org/2000/svg">
    <g clip-path="url(#clip0_22_784)">
        <path d="M17.2778 0C17.1924 0 17.1046 0.0157481 17.0169 0.0517436L4.04949 5.26209H0.359955C0.16198 5.26209 0 5.42857 0 5.63555V12.3622C0 12.5692 0.16198 12.7357 0.359955 12.7357H2.64792C2.56468 12.9966 2.51969 13.2733 2.51969 13.5546C2.51969 15.0371 3.73003 16.243 5.21935 16.243C6.46569 16.243 7.51631 15.3971 7.82677 14.2542L17.0191 17.9483C17.1069 17.982 17.1946 18 17.2801 18C17.6603 18 18 17.6805 18 17.2531V0.746907C17.9978 0.31946 17.6603 0 17.2778 0ZM5.21935 14.6299C4.62317 14.6299 4.13948 14.1485 4.13948 13.5546C4.13948 13.3026 4.22722 13.0619 4.38695 12.8706L6.29696 13.6378C6.25197 14.1912 5.78628 14.6299 5.21935 14.6299ZM16.378 15.9438L4.65242 11.2328L4.3622 11.1159H1.6198V6.88189H4.3622L4.65242 6.7649L16.378 2.05399V15.9438Z" fill="currentColor"/>
    </g>
    <defs>
        <clipPath id="clip0_22_784">
            <rect width="18" height="18" fill="inherit"/>
        </clipPath>
    </defs>
</svg>
