<svg width="18" height="18" viewBox="0 0 18 18" fill="none" xmlns="http://www.w3.org/2000/svg">
<path fill-rule="evenodd" clip-rule="evenodd" d="M9 17C6.87827 17 4.84344 16.1571 3.34315 14.6569C1.84285 13.1566 1 11.1217 1 9C1 6.87827 1.84285 4.84344 3.34315 3.34315C4.84344 1.84285 6.87827 1 9 1C11.1217 1 13.1566 1.84285 14.6569 3.34315C16.1571 4.84344 17 6.87827 17 9C17 11.1217 16.1571 13.1566 14.6569 14.6569C13.1566 16.1571 11.1217 17 9 17ZM8.293 6.707C8.11084 6.5184 8.01005 6.2658 8.01233 6.0036C8.0146 5.7414 8.11977 5.49059 8.30518 5.30518C8.49059 5.11977 8.7414 5.0146 9.0036 5.01233C9.2658 5.01005 9.5184 5.11084 9.707 5.293L12.707 8.293C12.8945 8.48053 12.9998 8.73484 12.9998 9C12.9998 9.26516 12.8945 9.51947 12.707 9.707L9.707 12.707C9.5184 12.8892 9.2658 12.99 9.0036 12.9877C8.7414 12.9854 8.49059 12.8802 8.30518 12.6948C8.11977 12.5094 8.0146 12.2586 8.01233 11.9964C8.01005 11.7342 8.11084 11.4816 8.293 11.293L9.586 10H6C5.73478 10 5.48043 9.89464 5.29289 9.70711C5.10536 9.51957 5 9.26522 5 9C5 8.73478 5.10536 8.48043 5.29289 8.29289C5.48043 8.10536 5.73478 8 6 8H9.586L8.293 6.707Z" fill="currentColor"/>
</svg>
