<svg width="18" height="18" viewBox="0 0 18 18" fill="none" xmlns="http://www.w3.org/2000/svg">
<g clip-path="url(#clip0_15_713)">
<path d="M14.3236 7.95551C14.3236 4.43859 11.4726 1.58761 7.95561 1.58761C4.43864 1.58761 1.58763 4.43859 1.58763 7.95551C1.58763 11.4724 4.43864 14.3235 7.95561 14.3235C11.4726 14.3235 14.3236 11.4724 14.3236 7.95551ZM15.9113 7.95551C15.9113 9.86997 15.2335 11.6253 14.1068 12.9981L14.1861 13.0646L17.767 16.6454L17.8695 16.769C18.073 17.077 18.0382 17.4966 17.767 17.7679C17.4957 18.0386 17.0771 18.0726 16.7691 17.8694L16.6444 17.7679L13.0635 14.187L12.9982 14.1066C11.6255 15.2332 9.87016 15.911 7.95561 15.911C3.56187 15.911 0 12.3492 0 7.95551C0 3.56183 3.56187 0 7.95561 0C12.3493 0 15.9113 3.56183 15.9113 7.95551Z" fill="currentColor"/>
</g>
<defs>
<clipPath id="clip0_15_713">
<rect width="18" height="18" fill="white"/>
</clipPath>
</defs>
</svg>
