<svg width="28" height="28" viewBox="0 0 28 28" fill="none" xmlns="http://www.w3.org/2000/svg">
<path d="M9.56894 5.5999C8.93694 5.60577 8.41989 5.61709 7.97753 5.65323C7.43724 5.69737 7.05465 5.77174 6.75117 5.88018L6.47089 6.0005C5.85569 6.31396 5.34097 6.7905 4.98202 7.37589L4.83847 7.63291C4.66218 7.97892 4.55008 8.41897 4.49121 9.13955C4.43146 9.87092 4.43105 10.8064 4.43105 12.1282V15.858C4.43105 17.1797 4.43146 18.1152 4.49121 18.8465C4.55008 19.5673 4.66218 20.0073 4.83847 20.3532L4.98202 20.6103C5.34097 21.1956 5.85572 21.6722 6.47089 21.9856L6.75117 22.106C7.05465 22.2144 7.43727 22.2887 7.97753 22.333C8.41957 22.3691 8.9362 22.3804 9.56757 22.3863L9.56894 5.5999ZM25.431 15.858C25.431 17.149 25.4314 18.1736 25.3641 18.9983C25.3043 19.7294 25.1882 20.3661 24.9375 20.9507L24.8213 21.1981C24.3516 22.12 23.6368 22.8916 22.7595 23.4294L22.374 23.6455C21.722 23.9775 21.0097 24.1199 20.1743 24.1882C19.3494 24.2556 18.325 24.2552 17.0338 24.2552H10.9662C9.67499 24.2552 8.65057 24.2556 7.82577 24.1882C7.09459 24.1285 6.45811 24.0111 5.87343 23.7603L5.62597 23.6455C4.70419 23.1758 3.93257 22.4608 3.39472 21.5837L3.17871 21.1981C2.84659 20.5461 2.70421 19.8338 2.63593 18.9983C2.56855 18.1736 2.56894 17.149 2.56894 15.858V12.1282C2.56894 10.837 2.56855 9.81259 2.63593 8.9878C2.70419 8.15234 2.8466 7.44006 3.17871 6.788L3.39472 6.40245C3.93257 5.52534 4.70416 4.81041 5.62597 4.34073L5.87343 4.22451C6.45799 3.97382 7.09479 3.85769 7.82577 3.79795C8.65057 3.73057 9.67499 3.73096 10.9662 3.73096H17.0338C18.325 3.73096 19.3494 3.73057 20.1743 3.79795C21.0097 3.86621 21.722 4.00862 22.374 4.34073L22.7595 4.55675C23.6366 5.09459 24.3516 5.86618 24.8213 6.788L24.9375 7.03545C25.1882 7.62 25.3043 8.25681 25.3641 8.9878C25.4314 9.81259 25.431 10.837 25.431 12.1282V15.858ZM11.4297 22.393H17.0338C18.3557 22.393 19.2912 22.3926 20.0225 22.333C20.743 22.274 21.1831 22.1619 21.5291 21.9856L21.7861 21.8421C22.3716 21.4832 22.848 20.9684 23.1615 20.3532L23.2819 20.0729C23.3904 19.7694 23.4647 19.3869 23.5088 18.8465C23.5686 18.1152 23.569 17.1797 23.569 15.858V12.1282C23.569 10.8064 23.5686 9.87092 23.5088 9.13955C23.4647 8.59926 23.3902 8.21667 23.2819 7.91319L23.1615 7.63291C22.848 7.01771 22.3714 6.50299 21.7861 6.14405L21.5291 6.0005C21.1831 5.8242 20.7431 5.7121 20.0225 5.65323C19.2912 5.59348 18.3557 5.59307 17.0338 5.59307H11.4297L11.4311 5.5999L11.4297 22.393Z" fill="#E5E7EB"/>
</svg>
