<svg width="18" height="18" viewBox="0 0 18 18" fill="none" xmlns="http://www.w3.org/2000/svg">
<path d="M1 12.2733V5.72667C1 4.88076 0.999249 4.19705 1.0418 3.64435C1.08508 3.08238 1.17691 2.5842 1.39881 2.12188L1.54003 1.85335C1.89183 1.24483 2.39691 0.749077 2.99969 0.423181L3.16463 0.341658C3.55369 0.164606 3.97098 0.0845562 4.43449 0.0443656C4.95536 -0.000796739 5.5997 9.28583e-07 6.39689 9.28583e-07H7.55377L7.70855 0.0167941C8.05924 0.0928175 8.32314 0.421806 8.32314 0.816384C8.32314 1.21096 8.05924 1.53996 7.70855 1.61599L7.55377 1.63277H6.39689C5.5743 1.63277 5.00358 1.63386 4.55989 1.67233C4.23382 1.7006 4.01444 1.74585 3.84814 1.809L3.69788 1.87853C3.3482 2.0676 3.05566 2.355 2.85169 2.70809L2.77034 2.86273C2.6772 3.0567 2.61155 3.31622 2.57602 3.77742C2.53977 4.24822 2.53874 4.85383 2.53874 5.72667V12.2733C2.53874 13.1459 2.5398 13.7517 2.57602 14.2225C2.61152 14.6836 2.67727 14.9433 2.77034 15.1372L2.85169 15.2931C3.05566 15.6459 3.34837 15.9338 3.69788 16.1227L3.84814 16.1909C4.01447 16.2541 4.23371 16.3006 4.55989 16.3289C5.00358 16.3673 5.5743 16.3672 6.39689 16.3672H7.55377L7.70855 16.384C8.05916 16.46 8.32296 16.7891 8.32314 17.1835C8.32314 17.5781 8.05919 17.9072 7.70855 17.9832L7.55377 18H6.39689C5.5997 18 4.95536 18.0007 4.43449 17.9556C3.97095 17.9154 3.55371 17.8354 3.16463 17.6584L2.99969 17.5769C2.39682 17.2508 1.89184 16.7552 1.54003 16.1466L1.39881 15.8792C1.17673 15.4168 1.08509 14.9178 1.0418 14.3556C0.99926 13.8029 1 13.1191 1 12.2733Z" fill="currentColor"/>
<path d="M10.8665 13.5775C11.1669 13.8959 11.6542 13.896 11.9545 13.5775C12.255 13.2587 12.255 12.7407 11.9545 12.4219L9.4125 9.72464H16.2306C16.6554 9.72464 16.9998 9.35882 17 8.90818C17 8.45737 16.6555 8.09183 16.2306 8.09183H9.41134L11.9545 5.39333L12.0527 5.26506C12.2499 4.94827 12.2172 4.51785 11.9545 4.23888C11.6916 3.95996 11.2859 3.92542 10.9874 4.13459L10.8665 4.23888L7.00943 8.33039C6.70933 8.64908 6.70945 9.16609 7.00943 9.48489L10.8665 13.5775Z" fill="currentColor"/>
</svg>
