<svg width="18" height="18" viewBox="0 0 18 18" fill="none" xmlns="http://www.w3.org/2000/svg">
<path d="M17 12.2733V5.72667C17 4.88076 17.0008 4.19705 16.9582 3.64435C16.9149 3.08238 16.8231 2.5842 16.6012 2.12188L16.46 1.85335C16.1082 1.24483 15.6031 0.749077 15.0003 0.423181L14.8354 0.341658C14.4463 0.164606 14.029 0.0845562 13.5655 0.0443656C13.0446 -0.000796739 12.4003 9.28583e-07 11.6031 9.28583e-07H10.4462L10.2914 0.0167941C9.94076 0.0928175 9.67686 0.421806 9.67686 0.816384C9.67686 1.21096 9.94076 1.53996 10.2914 1.61599L10.4462 1.63277H11.6031C12.4257 1.63277 12.9964 1.63386 13.4401 1.67233C13.7662 1.7006 13.9856 1.74585 14.1519 1.809L14.3021 1.87853C14.6518 2.0676 14.9443 2.355 15.1483 2.70809L15.2297 2.86273C15.3228 3.0567 15.3885 3.31622 15.424 3.77742C15.4602 4.24822 15.4613 4.85383 15.4613 5.72667V12.2733C15.4613 13.1459 15.4602 13.7517 15.424 14.2225C15.3885 14.6836 15.3227 14.9433 15.2297 15.1372L15.1483 15.2931C14.9443 15.6459 14.6516 15.9338 14.3021 16.1227L14.1519 16.1909C13.9855 16.2541 13.7663 16.3006 13.4401 16.3289C12.9964 16.3673 12.4257 16.3672 11.6031 16.3672H10.4462L10.2914 16.384C9.94084 16.46 9.67704 16.7891 9.67686 17.1835C9.67686 17.5781 9.94081 17.9072 10.2914 17.9832L10.4462 18H11.6031C12.4003 18 13.0446 18.0007 13.5655 17.9556C14.0291 17.9154 14.4463 17.8354 14.8354 17.6584L15.0003 17.5769C15.6032 17.2508 16.1082 16.7552 16.46 16.1466L16.6012 15.8792C16.8233 15.4168 16.9149 14.9178 16.9582 14.3556C17.0007 13.8029 17 13.1191 17 12.2733Z" fill="currentColor"/>
<path d="M7.13354 13.5775C6.83309 13.8959 6.34581 13.896 6.04549 13.5775C5.74505 13.2587 5.74505 12.7407 6.04549 12.4219L8.5875 9.72464H1.76937C1.34461 9.72464 1.00021 9.35882 1 8.90818C1 8.45737 1.34448 8.09183 1.76937 8.09183H8.58866L6.04549 5.39333L5.94727 5.26506C5.75014 4.94827 5.78276 4.51785 6.04549 4.23888C6.30845 3.95996 6.71405 3.92542 7.01264 4.13459L7.13354 4.23888L10.9906 8.33039C11.2907 8.64908 11.2906 9.16609 10.9906 9.48489L7.13354 13.5775Z" fill="currentColor"/>
</svg>
