<svg width="18" height="18" viewBox="0 0 18 18" fill="none" xmlns="http://www.w3.org/2000/svg">
<g clip-path="url(#clip0_15_717)">
<path d="M16.3636 10.118V16.2H17.1818V18H0.818182V16.2H1.63636V10.118C0.649645 9.3915 0 8.15418 0 6.75C0 6.00557 0.183625 5.28859 0.518089 4.67771L2.73706 0.45C2.88322 0.17154 3.15332 0 3.44563 0H14.5544C14.8466 0 15.1168 0.17154 15.2629 0.45L17.4743 4.66355C17.8164 5.28859 18 6.00557 18 6.75C18 8.15418 17.3504 9.3915 16.3636 10.118ZM14.7273 10.7753C14.5929 10.7916 14.4565 10.8 14.3182 10.8C13.288 10.8 12.3373 10.3302 11.6591 9.55188C10.9809 10.3302 10.0302 10.8 9 10.8C7.96983 10.8 7.0191 10.3302 6.34091 9.55188C5.66272 10.3302 4.712 10.8 3.68182 10.8C3.54355 10.8 3.40705 10.7916 3.27273 10.7753V16.2H14.7273V10.7753ZM3.91799 1.8L1.92762 5.59189C1.73789 5.93859 1.63636 6.33501 1.63636 6.75C1.63636 7.99263 2.55215 9 3.68182 9C4.52533 9 5.27291 8.43327 5.58146 7.58655C5.85605 6.83301 6.82576 6.83301 7.10035 7.58655C7.40888 8.43327 8.15645 9 9 9C9.84355 9 10.5911 8.43327 10.8997 7.58655C11.1742 6.83301 12.1439 6.83301 12.4185 7.58655C12.7271 8.43327 13.4746 9 14.3182 9C15.4478 9 16.3636 7.99263 16.3636 6.75C16.3636 6.33501 16.2621 5.93859 16.0648 5.57771L14.082 1.8H3.91799Z" fill="currentColor"/>
</g>
<defs>
<clipPath id="clip0_15_717">
<rect width="18" height="18" fill="white"/>
</clipPath>
</defs>
</svg>
