<svg width="18" height="18" viewBox="0 0 18 18" fill="none" xmlns="http://www.w3.org/2000/svg">
<path d="M1.40625 11.25V3.9375C1.40625 3.56454 1.55441 3.20685 1.81813 2.94313C2.08185 2.67941 2.43954 2.53125 2.8125 2.53125H15.1875C15.5605 2.53125 15.9181 2.67941 16.1819 2.94313C16.4456 3.20685 16.5938 3.56454 16.5938 3.9375V11.25C16.5937 11.4738 16.5049 11.6884 16.3466 11.8466C16.1884 12.0049 15.9738 12.0938 15.75 12.0938C15.5262 12.0938 15.3116 12.0049 15.1534 11.8466C14.9951 11.6884 14.9062 11.4738 14.9062 11.25V4.21875H3.09375V11.25C3.09375 11.4738 3.00486 11.6884 2.84662 11.8466C2.68839 12.0049 2.47378 12.0938 2.25 12.0938C2.02622 12.0938 1.81161 12.0049 1.65338 11.8466C1.49514 11.6884 1.40625 11.4738 1.40625 11.25ZM17.7188 14.0625C17.7188 14.2863 17.6299 14.5009 17.4716 14.6591C17.3134 14.8174 17.0988 14.9062 16.875 14.9062H1.125C0.901224 14.9062 0.686612 14.8174 0.528379 14.6591C0.370145 14.5009 0.28125 14.2863 0.28125 14.0625C0.28125 13.8387 0.370145 13.6241 0.528379 13.4659C0.686612 13.3076 0.901224 13.2188 1.125 13.2188H7.59375V11.25C7.59375 11.0262 7.68264 10.8116 7.84088 10.6534C7.99911 10.4951 8.21372 10.4062 8.4375 10.4062H12.9375C13.1613 10.4062 13.3759 10.4951 13.5341 10.6534C13.6924 10.8116 13.7812 11.0262 13.7812 11.25V13.2188H16.875C17.0988 13.2187 17.3134 13.3076 17.4716 13.4659C17.6299 13.6241 17.7188 13.8387 17.7188 14.0625ZM9.28125 13.2188H12.0938V12.0938H9.28125V13.2188Z" fill="currentColor"/>
</svg>
