<svg width="18" height="18" viewBox="0 0 18 18" fill="none" xmlns="http://www.w3.org/2000/svg">
<path d="M9.75 7.5L15.2872 13.0635C15.9045 13.6785 15.9045 14.6745 15.2872 15.2888C14.9907 15.5837 14.5895 15.7493 14.1712 15.7493C13.753 15.7493 13.3518 15.5837 13.0552 15.2888L7.5 9.75" stroke="white" stroke-linecap="round" stroke-linejoin="round"/>
<path d="M4.5 6.75L7.5 9.75" stroke="white" stroke-linecap="round" stroke-linejoin="round"/>
<path d="M9.75 7.5L6.75 4.5" stroke="white" stroke-linecap="round" stroke-linejoin="round"/>
<path d="M2.25 15.75H7.5" stroke="white" stroke-linecap="round" stroke-linejoin="round"/>
<path d="M5.09474 11.8448L2.40524 9.15526C2.26464 9.01461 2.18565 8.82388 2.18565 8.62501C2.18565 8.42614 2.26464 8.2354 2.40524 8.09476L4.12499 6.37501L4.49999 6.75001L6.74999 4.50001L6.37499 4.12501L8.09474 2.40526C8.23539 2.26466 8.42612 2.18567 8.62499 2.18567C8.82387 2.18567 9.0146 2.26466 9.15524 2.40526L11.8447 5.09476C11.9853 5.2354 12.0643 5.42614 12.0643 5.62501C12.0643 5.82388 11.9853 6.01461 11.8447 6.15526L10.125 7.87501L9.74999 7.50001L7.49999 9.75001L7.87499 10.125L6.15524 11.8448C6.0146 11.9854 5.82387 12.0643 5.62499 12.0643C5.42612 12.0643 5.23539 11.9854 5.09474 11.8448Z" stroke="white" stroke-linecap="round" stroke-linejoin="round"/>
</svg>
