<svg width="20" height="20" viewBox="0 0 20 20" fill="none" xmlns="http://www.w3.org/2000/svg">
    <path d="M10.3281 3.71131C8.93749 3.70897 7.19531 4.14842 5.47656 5.04295C3.76054 5.93749 2.40039 7.10936 1.60195 8.25389C0.803119 9.39452 0.587104 10.457 0.980073 11.2148C1.37343 11.9687 2.36796 12.4023 3.7621 12.4023C5.15624 12.4062 6.89843 11.9648 8.61328 11.0742C10.332 10.1797 11.6914 9.00389 12.4883 7.86327C13.2891 6.72264 13.5 5.66014 13.1094 4.90233C12.7148 4.14842 11.7227 3.71131 10.3281 3.71131ZM13.918 6.45702C13.7812 7.05467 13.4844 7.66795 13.0664 8.26561C12.1836 9.52733 10.7422 10.7578 8.93749 11.6953C7.13281 12.6367 5.30078 13.1094 3.76171 13.1094C3.03515 13.1094 2.36171 13 1.79414 12.7695L2.20781 13.5664C2.60156 14.3242 3.59335 14.7578 4.98828 14.7578C6.38281 14.7578 8.12499 14.3203 9.83984 13.4258C11.5586 12.5351 12.918 11.3594 13.7148 10.2148C14.5117 9.0742 14.7305 8.0117 14.3359 7.2578L13.918 6.45702ZM15.043 7.11327C15.4805 8.15624 15.1289 9.42577 14.293 10.6172C13.5547 11.6758 12.4258 12.7031 11.0273 13.5625C11.4609 13.6094 11.9141 13.6328 12.375 13.6328C14.3086 13.6328 16.0586 13.2187 17.293 12.5742C18.5312 11.9297 19.2109 11.0859 19.2109 10.2344C19.2109 9.3828 18.5312 8.53905 17.293 7.89452C16.6641 7.56639 15.8984 7.29686 15.043 7.11327ZM19.2109 11.9883C18.8125 12.4531 18.2656 12.8633 17.6211 13.1992C16.2539 13.9101 14.4102 14.3359 12.375 14.3359C11.5469 14.3359 10.75 14.2656 10.0039 14.1328C9.09765 14.5898 8.18749 14.9297 7.31249 15.1523C7.35937 15.1797 7.40624 15.2031 7.45703 15.2305C8.6914 15.875 10.4414 16.289 12.375 16.289C14.3086 16.289 16.0586 15.875 17.293 15.2305C18.5312 14.5859 19.2109 13.7422 19.2109 12.8906V11.9883Z" fill="currentColor"/>
</svg>
