<svg width="18" height="18" viewBox="0 0 18 18" fill="none" xmlns="http://www.w3.org/2000/svg">
<g clip-path="url(#clip0_22_777)">
<path d="M0 12.2731V12.0693C0 11.8528 0.086007 11.6452 0.239101 11.4921C0.392194 11.339 0.599833 11.2529 0.81634 11.2529C1.03285 11.2529 1.24049 11.339 1.39358 11.4921C1.54667 11.6452 1.63268 11.8528 1.63268 12.0693V12.2731C1.63268 13.1459 1.63391 13.7524 1.67319 14.2226C1.71002 14.6842 1.77999 14.9432 1.8782 15.1372L1.96413 15.2931C2.18141 15.6466 2.49199 15.9339 2.86272 16.123L3.0223 16.1917C3.19907 16.2543 3.43109 16.301 3.77726 16.3292C4.24865 16.3673 4.85385 16.3672 5.72666 16.3672H12.2733C13.1462 16.3672 13.7526 16.3673 14.2227 16.3292C14.6843 16.2924 14.9433 16.2212 15.1373 16.123L15.2932 16.0358C15.6467 15.8197 15.934 15.5079 16.123 15.1372L16.1918 14.9776C16.2544 14.802 16.301 14.5688 16.3293 14.2226C16.3673 13.7524 16.3673 13.1459 16.3673 12.2731V12.0693C16.3673 11.8528 16.4533 11.6452 16.6064 11.4921C16.7595 11.339 16.9672 11.2529 17.1837 11.2529C17.4002 11.2529 17.6078 11.339 17.7609 11.4921C17.914 11.6452 18 11.8528 18 12.0693V12.2731C18 13.1202 18 13.8027 17.9558 14.3564C17.9153 14.8474 17.8355 15.2918 17.6587 15.7043L17.5777 15.8799C17.2523 16.5172 16.7574 17.0524 16.1476 17.4267L15.88 17.5777C15.4172 17.8134 14.9188 17.9092 14.3565 17.9558C13.8041 18.0012 13.1191 18 12.2733 18H5.72666C4.88086 18 4.1971 18.0012 3.64468 17.9558C3.15365 17.9153 2.7105 17.8367 2.2968 17.6599L2.12249 17.5777C1.48432 17.2526 0.948241 16.7577 0.57328 16.1475L0.423515 15.8799C0.18782 15.4171 0.0908409 14.9186 0.0441929 14.3564C1.82924e-08 13.804 0 13.1189 0 12.2731ZM8.18427 12.0693V2.78843L5.48605 5.48554C5.33148 5.63082 5.12643 5.71022 4.91433 5.70693C4.70223 5.70364 4.49974 5.61792 4.34975 5.46792C4.19975 5.31792 4.11403 5.11542 4.11074 4.90331C4.10746 4.6912 4.18686 4.48614 4.33213 4.33156L8.42365 0.238646L8.54764 0.136753C8.70471 0.0323128 8.89307 -0.0145975 9.08078 0.00397292C9.26849 0.0225434 9.44401 0.105452 9.57758 0.238646L13.6703 4.33156C13.81 4.48733 13.8846 4.69072 13.8789 4.89986C13.8732 5.109 13.7875 5.30798 13.6394 5.45585C13.4914 5.60371 13.2924 5.6892 13.0832 5.69472C12.8741 5.70025 12.6708 5.62538 12.5152 5.48554L9.81695 2.78843V12.0693C9.8055 12.2781 9.7145 12.4745 9.56266 12.6183C9.41083 12.762 9.20969 12.8421 9.00061 12.8421C8.79153 12.8421 8.5904 12.762 8.43856 12.6183C8.28673 12.4745 8.19573 12.2781 8.18427 12.0693Z" fill="currentColor"/>
</g>
<defs>
<clipPath id="clip0_22_777">
<rect width="18" height="18" fill="white"/>
</clipPath>
</defs>
</svg>
