<svg  width="250pt" height="250pt" viewBox="0 0 1450 790" xmlns="http://www.w3.org/2000/svg" preserveAspectRatio="xMidYMid meet">
<g transform="translate(0,900) scale(0.1,-0.1)" fill="#673ab7" stroke="none">
<path fill="#673ab7" d="M9665 7725 c-517 -7 -1763 -23 -2770 -35 -1007 -12 -1834 -26 -1838
-30 -5 -4 -183 -254 -397 -556 l-389 -549 122 -3 c109 -2 7285 94 7448 100
l66 3 -441 543 -441 542 -210 -2 c-115 0 -633 -7 -1150 -13z"/>
<path fill="#673ab7" d="M8525 6214 c-863 -12 -2542 -37 -3729 -53 -1188 -17 -2161 -32 -2162
-34 -3 -2 861 -1065 880 -1083 0 -1 1346 15 2989 36 2491 31 2991 40 3002 51
12 13 762 1069 779 1097 5 9 -15 12 -91 11 -54 -1 -804 -12 -1668 -25z"/>
<path fill="#673ab7" d="M10160 4733 c-85 -1 -688 -9 -1340 -18 -652 -8 -1759 -22 -2460 -31
-933 -12 -1278 -19 -1287 -27 -6 -7 -185 -257 -397 -557 -331 -468 -383 -545
-365 -548 33 -6 7254 97 7441 106 l166 7 -436 537 -437 538 -365 -2 c-201 -2
-435 -4 -520 -5z"/>
<path fill="#673ab7" d="M6870 3180 c-1785 -27 -3500 -52 -3812 -57 -311 -4 -569 -11 -573
-15 -4 -3 191 -247 432 -542 l438 -535 150 0 c83 0 1427 17 2988 37 2784 37
2837 38 2856 57 16 18 721 1010 765 1078 10 15 14 26 10 26 -5 -1 -1469 -23
-3254 -49z"/>
</g>
</svg>


